<?xml version="1.0" standalone="no"?>
<!-- Generator: Adobe Fireworks 10, Export SVG Extension by Aaron Beall (http://fireworks.abeall.com) . Version: 0.6.1  -->
<!DOCTYPE svg PUBLIC "-//W3C//DTD SVG 1.1//EN" "http://www.w3.org/Graphics/SVG/1.1/DTD/svg11.dtd">
<svg id="logo-novo-viajanet-Page%201" viewBox="0 0 106 41" style="background-color:#ffffff00" version="1.1"
	xmlns="http://www.w3.org/2000/svg" xmlns:xlink="http://www.w3.org/1999/xlink" xml:space="preserve"
	x="0px" y="0px" width="106px" height="41px"
>
	<g id="Background">
		<image visibility="hidden" x="1" y="1" width="104" height="39" xlink:href="logo-novo-viajanet.svg.images/image1.png"/>
		<path d="M 75.2431 12.8601 L 76.7148 10.4033 C 77.7185 8.7176 76.0067 7.8379 76.0067 7.8379 L 64.7074 2.0545 C 64.4867 1.9185 64.387 1.6402 64.4766 1.3782 C 64.5698 1.1199 64.8173 0.9703 65.0749 1.005 L 105 8.3644 L 75.8072 13.7371 C 75.7177 13.7535 75.6078 13.7508 75.5118 13.7134 C 75.2293 13.6075 75.0852 13.2854 75.1886 12.9924 C 75.2025 12.945 75.2191 12.9011 75.2431 12.8601 Z" fill="#0164bf"/>
		<path d="M 70.2001 5.925 L 63.8478 7.0904 C 63.6899 7.1214 63.5662 7.2191 63.5108 7.3788 C 63.4249 7.627 63.5413 7.889 63.7684 7.9738 L 74.8895 11.2529 L 75.4462 10.5055 C 76.5634 8.9595 74.5146 8.1335 74.5146 8.1335 L 70.2001 5.925 Z" fill="#ffa600"/>
		<path d="M 51.4239 23.088 C 51.5818 21.3211 52.6718 20.6248 54.3563 20.6248 C 55.9167 20.6248 57.2268 20.7608 57.2268 22.6873 C 57.2268 24.519 54.6998 24.4232 51.9876 24.8348 C 49.2408 25.2153 46.4977 26.0988 46.4977 29.7922 C 46.4977 33.1397 48.9315 34.6885 51.9876 34.6885 C 53.951 34.6885 56.058 34.3389 57.4604 32.8541 C 57.4909 33.3907 57.4604 34.3015 57.4604 34.3015 L 61.847 34.3015 L 61.847 22.3268 C 61.847 18.4125 58.0006 17.624 54.7893 17.624 C 51.1728 17.624 47.2469 18.888 46.9963 23.088 L 51.4239 23.088 ZM 57.3783 27.9304 C 57.3783 28.9088 57.2545 31.6886 53.7922 31.6886 C 52.3555 31.6886 50.9254 31.277 50.9254 29.6024 C 50.9254 27.9605 52.3246 27.4887 53.6994 27.203 C 55.0709 26.9512 56.6286 26.921 57.3783 26.2548 L 57.3783 27.9304 ZM 16.9061 17.9909 L 12.5061 17.9909 L 9.1093 29.0648 L 9.0474 29.1369 L 5.6479 17.9909 L 1 17.9909 L 6.5208 34.3015 L 11.4471 34.3015 L 16.9061 17.9909 ZM 22.6573 13.9133 L 18.1885 13.9133 L 18.1885 16.632 L 22.6573 16.632 L 22.6573 13.9133 ZM 18.1885 34.3015 L 22.6573 34.3015 L 22.6573 17.9909 L 18.1885 17.9909 L 18.1885 34.3015 ZM 28.7487 23.088 C 28.9071 21.3211 29.997 20.6248 31.6811 20.6248 C 33.2419 20.6248 34.5516 20.7608 34.5516 22.6873 C 34.5516 24.519 32.025 24.4232 29.3092 24.8348 C 26.566 25.2153 23.8229 26.0988 23.8229 29.7922 C 23.8229 33.1397 26.2531 34.6885 29.3092 34.6885 C 31.2758 34.6885 33.3827 33.9994 34.7852 32.5146 C 34.8166 33.0512 34.7852 34.3015 34.7852 34.3015 L 39.158 34.3015 L 39.158 22.0722 C 39.158 18.1543 35.3115 17.624 32.1007 17.624 C 28.4842 17.624 24.5722 18.888 24.3211 23.088 L 28.7487 23.088 ZM 34.6892 27.9304 C 34.6892 28.9088 34.5655 31.6886 31.1036 31.6886 C 29.6669 31.6886 28.2506 31.277 28.2506 29.6024 C 28.2506 27.9605 29.636 27.4887 31.0108 27.203 C 32.3824 26.9512 33.9399 26.921 34.6892 26.2548 L 34.6892 27.9304 ZM 45.3459 13.9133 L 40.8771 13.9133 L 40.8771 16.632 L 45.3459 16.632 L 45.3459 13.9133 ZM 38.1266 40 C 38.1266 40 39.2304 39.9927 39.6981 39.9927 C 44.1599 39.9927 45.3459 38.4129 45.3459 35.0663 L 45.3459 17.9909 L 40.8771 17.9909 L 40.8771 34.9166 C 40.8771 36.1469 40.0969 36.2993 39.1893 36.2993 C 38.8177 36.2993 38.1266 36.3093 38.1266 36.3093 L 38.1266 40 Z" fill="#0164bf"/>
		<path d="M 96.0828 27.1656 C 96.3921 22.1534 93.7487 17.488 88.2727 17.488 C 83.3912 17.488 80.0599 21.3448 80.0599 26.2311 C 80.0599 31.2734 83.2019 34.6885 88.2727 34.6885 C 91.9123 34.6885 94.5566 33.0512 95.8012 29.2044 L 91.9123 29.2044 C 91.6344 30.2138 90.2005 31.1785 88.4305 31.1785 C 85.9727 31.1785 84.6044 30.003 84.477 27.1656 L 96.0828 27.1656 ZM 84.477 24.4469 C 84.5388 23.1865 85.3504 20.9606 88.1489 20.9606 C 90.2974 20.9606 91.2595 22.1772 91.6648 24.4469 L 84.477 24.4469 ZM 101.7241 13.5738 L 97.2554 13.5738 L 97.2554 30.7641 C 97.2554 34.0095 99.62 34.641 102.3252 34.641 L 104.8181 34.641 L 104.8181 30.9038 L 103.4562 30.9038 C 101.9614 30.9038 101.7241 30.5743 101.7241 29.0621 L 101.7241 21.3896 L 104.8181 21.3896 L 104.8181 17.9909 L 101.7241 17.9909 L 101.7241 13.5738 ZM 63.5662 34.3015 L 68.0349 34.3015 L 68.0349 25.8204 C 68.0349 22.5103 68.997 21.155 71.393 21.155 C 73.4454 21.155 74.2229 22.4802 74.2229 25.1578 L 74.2229 34.3015 L 78.6916 34.3015 L 78.6916 24.2771 C 78.6916 20.2442 77.5089 17.6277 72.813 17.6277 C 70.9461 17.6277 68.9047 18.5075 67.7838 20.3355 L 67.6906 20.3355 L 67.6906 17.9909 L 63.5662 17.9909 L 63.5662 34.3015 Z" fill="#ffa600"/>
	</g>
	<g id="Layer%201">
	</g>
</svg>